<svg xmlns="http://www.w3.org/2000/svg" viewBox="0 0 16 16" fill="context-fill"><defs><style>.a{fill:#666;}.b{fill:#fff;stroke:#fff;stroke-miterlimit:10;stroke-width:0.75px;}</style></defs><title>folder-16</title><path class="a" d="M3.4,1.5a2.75,2.75,0,0,1,.18.4l0.34,1h8.76v8H1.5V1.5H3.4M3.81,0H0.37A0.37,0.37,0,0,0,0,.37V12.13a0.26,0.26,0,0,0,.26.26H13.58a0.6,0.6,0,0,0,.6-0.6v-10a0.35,0.35,0,0,0-.35-0.35H5S4.53,0,3.81,0h0Z"/><polygon class="a" points="0.71 1.5 1.15 1.5 1.48 0.82 3.57 0.82 4.02 1.5 12.69 1.5 12.69 2.93 0.71 2.93 0.71 1.5"/><circle class="a" cx="11.46" cy="11.46" r="4.54"/><path class="b" d="M11.78,10a0.53,0.53,0,0,0-.63,0L8.82,12.37a0.48,0.48,0,0,0,0,.53,0.48,0.48,0,0,0,.53,0l2.11-2.11,2.11,2.11a0.48,0.48,0,0,0,.53,0,0.48,0.48,0,0,0,0-.53Z"/></svg>