<svg xmlns="http://www.w3.org/2000/svg" viewBox="0 0 64 64" fill="context-fill"><defs><style>.a{fill:#666;}.b{fill:#fff;stroke:#fff;stroke-miterlimit:10;stroke-width:3px;}</style></defs><title>folder-64</title><path class="a" d="M13.65,6a11.07,11.07,0,0,1,.74,1.64l1.37,4.1H50.91v32H6V6h7.65M15.3,0H1.47A1.48,1.48,0,0,0,0,1.47v47.2a1.06,1.06,0,0,0,1.06,1.06H54.52a2.39,2.39,0,0,0,2.39-2.39V7.14a1.4,1.4,0,0,0-1.4-1.4H20.08S18.17,0,15.3,0h0Z"/><polygon class="a" points="3.35 6.19 3.35 3.57 6.45 3.57 16.65 3.57 16.65 6.19 51.44 6.19 51.44 11.74 3.35 11.74 3.35 6.19"/><circle class="a" cx="46" cy="46" r="18"/><path class="b" d="M47,40.22a1.15,1.15,0,0,0-1-.42,1.6,1.6,0,0,0-1,.42l-9.42,9.42a1.48,1.48,0,0,0,2.09,2.09L46,43.36l8.37,8.37a1.48,1.48,0,0,0,2.09-2.09Z"/></svg>