<svg xmlns="http://www.w3.org/2000/svg" viewBox="0 0 32 32" fill="context-fill"><defs><style>.a{fill:#666;}.b{fill:#fff;stroke:#fff;stroke-miterlimit:10;stroke-width:1.5px;}</style></defs><title>folder-32</title><path class="a" d="M6.82,3a5.53,5.53,0,0,1,.37.82L7.88,5.87H25.45v16H3V3H6.82M7.65,0H0.74A0.74,0.74,0,0,0,0,.74v23.6a0.53,0.53,0,0,0,.53.53H27.26a1.2,1.2,0,0,0,1.2-1.2V3.57a0.7,0.7,0,0,0-.7-0.7H10S9.09,0,7.65,0h0Z"/><polygon class="a" points="1.83 2.94 1.83 1.56 3.38 1.56 8.48 1.56 8.48 2.94 25.88 2.94 25.88 5.87 1.83 5.87 1.83 2.94"/><circle class="a" cx="23" cy="23" r="9"/><path class="b" d="M23.52,20.11A0.58,0.58,0,0,0,23,19.9a0.8,0.8,0,0,0-.52.21l-4.71,4.71a0.74,0.74,0,0,0,1,1L23,21.68l4.19,4.19a0.74,0.74,0,0,0,1-1Z"/></svg>